**ABCDEFGHIJKLMNOPQRSTUVWXYZabcdefghijklmnopqrstuvwxyz**************************
**PARASOLID !"#$%&'()*+,-./:;<=>?@[\]^_`{|}~0123456789**************************
**PART1;
MC=AMD64;
MC_MODEL=Intel64 Family 6 Model 165 Stepping 3, GenuineIntel;
MC_ID=unknown;
OS=Windows_NT;
OS_RELEASE=unknown;
FRU=Parasolid Version 31.1, build 278,  7-15-2019;
APPL=SOLIDWORKS 2020-2019269;
SITE=;
USER=unknown;
FORMAT=text;
GUISE=transmit;
KEY=赵州桥模型;
FILE=赵州桥模型.x_t;
DATE=Thu Feb  1 14:27:28 2024;
**PART2;
SCH=SCH_3101278_31100;
USFLD_SIZE=0;
**PART3;
**END_OF_HEADER*****************************************************************
T51 : TRANSMIT FILE created by modeller version 310127823 SCH_3101278_31100_1300
6222 0 12 34 CCCCCCI4 mesh1006 0 I8 polyline1008 0 CCCCCCCDI5 owner1040 0 CCCCCC
I13 boundary_mesh1006 0 I17 boundary_polyline1008 0 CCCA16 index_map_offset0 0 1
 dA9 index_map82 0 A17 node_id_index_map82 0 A20 schema_embedding_map82 0 A5 chi
ld12 0 A14 lowest_node_id0 0 1 dA16 mesh_offset_data206 0 Z1 1957 2 3 0 0 0 0 0
 0 1e3 1e-8 0 4 0 1 0 1 1 5 6 7 8 0 0 9 10 11 0 0 0 0 0 0 0 81 255 2 2 1923 12 1
 13 0 0 0 0 14 70 11 CI9 list_type0 0 1 uI10 notransmit0 0 1 lCCCDCCDI12 finger_
index0 0 1 dI12 finger_block1012 0 CZ3 0 4 T1 0 0 10 20 1 15 15 13 255 5 493 0 1
 0 16 0 0 17 0 51 255 6 1546 0 18 19 0 0 +-.167965779250173 .00899572385539235 .
05 0 0 -1 .003 -1 0 0 31 255 7 1239 0 10 20 0 0 --.167965779250173 .008995723855
39235 .05 0 0 1 1 0 0 .003 29 255 8 1059 0 11 21 0 -.170965779250173 .0089957238
5539235 .05 19 8 CCCCCCCA5 owner12 0 Z9 169 0 1 17 0 22 V0 16 255 10 1210 0 ?23
 0 24 7 0 0 1 18 255 11 1057 0 23 0 25 8 ?1 17 255 23 0 26 27 28 11 29 10 0 30 +
18 25 1054 0 31 11 32 21 ?1 17 31 0 33 30 34 25 35 36 0 27 +18 32 1051 0 37 25 3
8 39 ?1 29 21 1056 0 25 39 8 -.170965779250173 .041789276630667 .05 29 39 1053 0
 32 40 21 -.170965779250173 .00899572385539235 0 29 40 1050 0 38 41 39 -.1709657
79250173 .041789276630667 0 18 38 1048 0 42 32 43 40 ?1 29 41 1035 0 43 44 40 -.
170390355248021 .04355603389488335 .05 18 43 1033 0 45 38 46 41 ?1 29 44 1032 0
 46 47 41 -.1376921236955864 .04302993614675505 .05 18 46 1030 0 48 43 49 44 ?1
 29 47 1029 0 49 50 44 -.170390355248021 .04355603389488335 0 18 49 1027 0 51 46
 52 47 ?1 29 50 1026 0 52 53 47 -.1376921236955864 .04302993614675505 0 18 52 10
24 0 54 49 55 50 ?1 29 53 1011 0 55 56 50 -.137172282430604 .02661655551003095 .
05 18 55 1009 0 57 52 58 53 ?1 29 56 1008 0 58 59 53 -.137172282430604 .04134209
354475795 .05 18 58 1006 0 60 55 61 56 ?1 29 59 1005 0 61 62 56 -.13717228243060
4 .02661655551003095 0 18 61 1003 0 63 58 64 59 ?1 29 62 1002 0 64 65 59 -.13717
2282430604 .04134209354475795 0 18 64 1000 0 66 61 67 62 ?1 29 65 987 0 67 68 62
 -.1387132099519278 .0239952757649504 .05 18 67 985 0 69 64 70 65 ?1 29 68 984 0
 70 71 65 -.1662174004579205 .00655786175945652 .05 18 70 982 0 72 67 73 68 ?1 2
9 71 981 0 73 74 68 -.1387132099519278 .0239952757649504 0 18 73 979 0 75 70 76
 71 ?1 29 74 978 0 76 77 71 -.1662174004579205 .00655786175945652 0 18 76 976 0
 78 73 79 74 ?1 29 77 969 0 79 80 74 -.124172282430604 .03628989108384265 .05 18
 79 967 0 81 76 82 77 ?1 29 80 966 0 82 83 77 -.124172282430604 .036289891083842
65 0 18 82 964 0 84 79 85 80 ?1 29 83 957 0 85 86 80 -.100305428470077 .04520170
76122042 .05 18 85 955 0 87 82 88 83 ?1 29 86 954 0 88 89 83 -.100305428470077 .
0452017076122042 0 18 88 952 0 90 85 91 86 ?1 29 89 939 0 91 92 86 -.10196098388
95526 .0411518573240774 .05 18 91 937 0 93 88 94 89 ?1 29 92 936 0 94 95 89 -.11
99109835532 .0335679202644069 .05 18 94 934 0 96 91 97 92 ?1 29 95 933 0 97 98 9
2 -.1019609838895526 .0411518573240774 0 18 97 931 0 99 94 100 95 ?1 29 98 930 0
 100 101 95 -.1199109835532 .0335679202644069 0 18 100 928 0 102 97 103 98 ?1 29
 101 921 0 103 104 98 .100305428470077 .0452017076122041 .05 18 103 919 0 105 10
0 106 101 ?1 29 104 918 0 106 107 101 .100305428470077 .0452017076122041 0 18 10
6 916 0 108 103 109 104 ?1 29 107 909 0 109 110 104 .124172282430604 .0362898910
8384265 .05 18 109 907 0 111 106 112 107 ?1 29 110 906 0 112 113 107 .1241722824
30604 .03628989108384265 0 18 112 904 0 114 109 115 110 ?1 29 113 891 0 115 116
 110 .1199109835532 .0335679202644069 .05 18 115 889 0 117 112 118 113 ?1 29 116
 888 0 118 119 113 .101960983889552 .04115185732407765 .05 18 118 886 0 120 115
 121 116 ?1 29 119 885 0 121 122 116 .1199109835532 .0335679202644069 0 18 121 8
83 0 123 118 124 119 ?1 29 122 882 0 124 125 119 .101960983889552 .0411518573240
7765 0 18 124 880 0 126 121 127 122 ?1 29 125 867 0 127 128 122 .170390355248021
 .04355603389488335 .05 18 127 865 0 129 124 130 125 ?1 29 128 864 0 130 131 125
 .1376921236955864 .04302993614675505 .05 18 130 862 0 132 127 133 128 ?1 29 131
 861 0 133 134 128 .170390355248021 .04355603389488335 0 18 133 859 0 135 130 13
6 131 ?1 29 134 858 0 136 137 131 .1376921236955864 .04302993614675505 0 18 136
 856 0 138 133 139 134 ?1 29 137 843 0 139 140 134 .137172282430604 .02661655551
003095 .05 18 139 841 0 141 136 142 137 ?1 29 140 840 0 142 143 137 .13717228243
0604 .04134209354475795 .05 18 142 838 0 144 139 145 140 ?1 29 143 837 0 145 146
 140 .137172282430604 .02661655551003095 0 18 145 835 0 147 142 148 143 ?1 29 14
6 834 0 148 149 143 .137172282430604 .04134209354475795 0 18 148 832 0 150 145 1
51 146 ?1 29 149 819 0 151 152 146 .170965779250173 .00899572385539235 .05 18 15
1 817 0 153 148 154 149 ?1 29 152 816 0 154 155 149 .170965779250173 .0417892766
30667 .05 18 154 814 0 156 151 157 152 ?1 29 155 813 0 157 158 152 .170965779250
173 .00899572385539235 0 18 157 811 0 159 154 160 155 ?1 29 158 810 0 160 161 15
5 .170965779250173 .041789276630667 0 18 160 808 0 162 157 163 158 ?1 29 161 795
 0 163 164 158 .1662174004579205 .00655786175945652 .05 18 163 793 0 165 160 166
 161 ?1 29 164 792 0 166 167 161 .1387132099519278 .0239952757649504 .05 18 166
 790 0 168 163 169 164 ?1 29 167 789 0 169 170 164 .1662174004579205 .0065578617
5945652 0 18 169 787 0 171 166 172 167 ?1 29 170 786 0 172 173 167 .138713209951
9278 .0239952757649504 0 18 172 784 0 174 169 175 170 ?1 29 173 381 0 176 177 17
0 .124172282430604 .04000126233895595 0 18 176 343 0 178 179 180 173 ?1 29 177 3
84 0 180 181 173 -.124172282430604 .04000126233895595 0 18 180 346 0 182 176 183
 177 ?1 29 181 390 0 183 184 177 -.1581797500735585 -3403266511086935e-32 0 18 1
83 352 0 185 180 186 181 ?1 29 184 391 0 186 187 181 -.2008986920435065 37913447
81078155e-31 0 18 186 353 0 188 183 189 184 ?1 29 187 392 0 189 190 184 -.25 .07
 0 18 189 354 0 191 186 192 187 ?1 29 190 393 0 192 193 187 .25 .07 0 18 192 355
 0 194 189 195 190 ?1 29 193 394 0 195 196 190 .2008986920435065 -45208972920673
9e-30 0 18 195 356 0 197 192 198 193 ?1 29 196 395 0 198 199 193 .15817975007355
8 628244971978862e-31 0 18 198 357 0 200 195 0 196 ?1 29 199 151 0 175 201 196 .
124172282430604 .04000126233895595 .05 18 175 149 0 202 172 203 199 ?1 29 201 14
2 0 203 204 199 -.124172282430604 .04000126233895595 .05 18 203 140 0 205 175 20
6 201 ?1 29 204 124 0 206 207 201 -.1581797500735585 -3403266511086935e-32 .05 1
8 206 122 0 208 203 209 204 ?1 29 207 121 0 209 210 204 -.2008986920435065 37913
44781078155e-31 .05 18 209 119 0 211 206 212 207 ?1 29 210 118 0 212 213 207 -.2
5 .07 .05 18 212 116 0 214 209 215 210 ?1 29 213 115 0 215 216 210 .25 .07 .05 1
8 215 113 0 217 212 218 213 ?1 29 216 112 0 218 219 213 .2008986920435065 -45208
9729206739e-30 .05 18 218 110 0 220 215 179 216 ?1 29 219 109 0 179 0 216 .15817
9750073558 628244971978862e-31 .05 18 179 107 0 221 218 176 219 ?1 17 221 0 222
 223 224 179 220 225 0 226 -15 255 222 452 0 197 227 0 17 223 0 222 197 221 198
 228 229 0 230 +17 224 0 222 221 197 218 231 232 0 233 -17 220 0 234 217 226 218
 221 225 0 224 +16 225 14 0 ?220 235 236 237 0 0 1 17 226 0 234 220 238 179 239
 236 0 228 +15 234 4 0 226 240 26 17 238 0 234 226 241 206 242 243 0 0 -17 239 0
 244 185 228 206 226 236 0 238 -16 236 9 0 ?226 225 245 246 0 0 1 17 228 0 244 2
39 230 179 223 229 0 0 -15 244 454 0 230 247 0 17 230 0 244 228 185 198 248 249
 0 0 +16 229 415 0 ?223 250 232 251 0 0 1 16 250 404 0 ?252 253 229 254 0 0 1 16
 232 414 0 ?231 229 255 256 0 0 1 30 255 251 492 0 229 256 257 0 +.1581797500735
58 628244971978862e-31 .05 0 0 -1 30 256 491 0 232 258 251 0 +.2008986920435065
 -452089729206739e-30 .05 0 0 -1 30 257 798 0 259 251 260 0 -.1387132099519278 .
0239952757649504 .05 0 0 -1 16 259 796 0 ?168 261 253 257 0 0 1 30 260 804 0 261
 257 262 0 +.1662174004579205 .00655786175945652 .05 0 0 -1 16 261 802 0 ?263 26
4 259 260 0 0 1 30 262 822 0 264 260 265 0 -.170965779250173 .041789276630667 0
 0 0 1 16 264 820 0 ?266 267 261 262 0 0 1 30 265 828 0 267 262 268 0 -.17096577
9250173 .00899572385539235 .05 0 0 -1 16 267 826 0 ?153 269 264 265 0 0 1 30 268
 846 0 269 265 270 0 -.137172282430604 .04134209354475795 .05 0 0 -1 16 269 844
 0 ?144 271 267 268 0 0 1 30 270 852 0 271 268 272 0 -.137172282430604 .02661655
551003095 0 0 0 1 16 271 850 0 ?273 274 269 270 0 0 1 30 272 870 0 274 270 275 0
 +.1376921236955864 .04302993614675505 .05 0 0 -1 16 274 868 0 ?276 277 271 272
 0 0 1 30 275 876 0 277 272 278 0 -.170390355248021 .04355603389488335 .05 0 0 -
1 16 277 874 0 ?129 279 274 275 0 0 1 30 278 894 0 279 275 280 0 -.1019609838895
52 .04115185732407765 .05 0 0 -1 16 279 892 0 ?120 281 277 278 0 0 1 30 280 900
 0 281 278 282 0 +.1199109835532 .03356792026440695 .05 0 0 -1 16 281 898 0 ?283
 284 279 280 0 0 1 30 282 912 0 284 280 285 0 -.124172282430604 .036289891083842
65 .05 0 0 -1 16 284 910 0 ?111 286 281 282 0 0 1 30 285 924 0 286 282 287 0 +.1
00305428470077 .0452017076122041 .05 0 0 -1 16 286 922 0 ?288 289 284 285 0 0 1
 30 287 942 0 289 285 290 0 --.1199109835532 .03356792026440695 .05 0 0 -1 16 28
9 940 0 ?96 291 286 287 0 0 1 30 290 948 0 291 287 292 0 +-.1019609838895526 .04
11518573240774 .05 0 0 -1 16 291 946 0 ?293 294 289 290 0 0 1 30 292 960 0 294 2
90 295 0 --.100305428470077 .0452017076122042 .05 0 0 -1 16 294 958 0 ?87 296 29
1 292 0 0 1 30 295 972 0 296 292 297 0 --.124172282430604 .03628989108384265 0 0
 0 1 16 296 970 0 ?298 299 294 295 0 0 1 30 297 990 0 299 295 300 0 --.166217400
4579205 .00655786175945652 .05 0 0 -1 16 299 988 0 ?72 301 296 297 0 0 1 30 300
 996 0 301 297 302 0 +-.1387132099519278 .0239952757649504 .05 0 0 -1 16 301 994
 0 ?303 304 299 300 0 0 1 30 302 1014 0 304 300 305 0 +-.137172282430604 .041342
09354475795 .05 0 0 -1 16 304 1012 0 ?306 307 301 302 0 0 1 30 305 1020 0 307 30
2 308 0 --.137172282430604 .02661655551003095 .05 0 0 -1 16 307 1018 0 ?57 309 3
04 305 0 0 1 30 308 1038 0 309 305 310 0 +-.170390355248021 .04355603389488335 .
05 0 0 -1 16 309 1036 0 ?311 312 307 308 0 0 1 30 310 1044 0 312 308 313 0 --.13
76921236955864 .04302993614675505 .05 0 0 -1 16 312 1042 0 ?48 314 309 310 0 0 1
 30 313 1062 0 314 310 315 0 --.170965779250173 .00899572385539235 0 0 0 1 16 31
4 1060 0 ?316 36 312 313 0 0 1 30 315 1068 0 36 313 317 0 +-.170965779250173 .04
1789276630667 .05 0 0 1 16 36 1066 0 ?31 318 314 315 0 0 1 31 317 1216 0 318 315
 319 0 +.167965779250173 .00899572385539235 0 0 0 1 1 0 0 .003 16 318 1072 0 ?15
9 320 36 317 0 0 1 31 319 1217 0 320 317 321 0 -.167965779250173 .00899572385539
235 .05 0 0 1 1 0 0 .003 16 320 1078 0 ?165 322 318 319 0 0 1 31 321 1218 0 322
 319 323 0 +.140172282430604 .02661655551003095 0 0 0 1 1 0 0 .003 16 322 1084 0
 ?174 324 320 321 0 0 1 31 323 1219 0 324 321 325 0 -.140172282430604 .026616555
51003095 .05 0 0 1 1 0 0 .003 16 324 1090 0 ?141 326 322 323 0 0 1 31 325 1220 0
 326 323 327 0 +.167965779250173 .041789276630667 0 0 0 1 1 0 0 .003 16 326 1096
 0 ?135 328 324 325 0 0 1 31 327 1221 0 328 325 329 0 -.167965779250173 .0417892
76630667 .05 0 0 1 1 0 0 .003 16 328 1102 0 ?156 330 326 327 0 0 1 31 329 1222 0
 330 327 331 0 +.140172282430604 .04134209354475795 0 0 0 1 1 0 0 .003 16 330 11
08 0 ?150 332 328 329 0 0 1 31 331 1223 0 332 329 333 0 -.140172282430604 .04134
209354475795 .05 0 0 1 1 0 0 .003 16 332 1114 0 ?132 334 330 331 0 0 1 31 333 12
24 0 334 331 335 0 +.121172282430604 .03628989108384265 0 0 0 1 1 0 0 .003 16 33
4 1120 0 ?114 336 332 333 0 0 1 31 335 1225 0 336 333 337 0 -.121172282430604 .0
3628989108384265 .05 0 0 1 1 0 0 .003 16 336 1126 0 ?117 338 334 335 0 0 1 31 33
7 1226 0 338 335 339 0 +.1030334734206034 .0439536007466246 0 0 0 1 1 0 0 .003 1
6 338 1132 0 ?126 340 336 337 0 0 1 31 339 1227 0 340 337 341 0 -.10303347342060
34 .0439536007466246 .05 0 0 1 1 0 0 .003 16 340 1138 0 ?105 342 338 339 0 0 1 3
1 341 1228 0 342 339 343 0 +-.1030334734206042 .0439536007466243 0 0 0 1 1 0 0 .
003 16 342 1144 0 ?90 344 340 341 0 0 1 31 343 1229 0 344 341 345 0 --.103033473
4206042 .0439536007466243 .05 0 0 1 1 0 0 .003 16 344 1150 0 ?93 346 342 343 0 0
 1 31 345 1230 0 346 343 347 0 +-.121172282430604 .03628989108384265 0 0 0 1 1 0
 0 .003 16 346 1156 0 ?102 348 344 345 0 0 1 31 347 1231 0 348 345 349 0 --.1211
72282430604 .03628989108384265 .05 0 0 1 1 0 0 .003 16 348 1162 0 ?81 350 346 34
7 0 0 1 31 349 1232 0 350 347 351 0 +-.140172282430604 .02661655551003095 0 0 0
 1 1 0 0 .003 16 350 1168 0 ?63 352 348 349 0 0 1 31 351 1233 0 352 349 353 0 --
.140172282430604 .02661655551003095 .05 0 0 1 1 0 0 .003 16 352 1174 0 ?69 354 3
50 351 0 0 1 31 353 1234 0 354 351 355 0 +-.140172282430604 .04134209354475795 0
 0 0 1 1 0 0 .003 16 354 1180 0 ?54 356 352 353 0 0 1 31 355 1235 0 356 353 357
 0 --.140172282430604 .04134209354475795 .05 0 0 1 1 0 0 .003 16 356 1186 0 ?60
 358 354 355 0 0 1 31 357 1236 0 358 355 359 0 +-.167965779250173 .0417892766306
67 0 0 0 1 1 0 0 .003 16 358 1192 0 ?42 360 356 357 0 0 1 31 359 1237 0 360 357
 20 0 --.167965779250173 .041789276630667 .05 0 0 1 1 0 0 .003 16 360 1198 0 ?45
 24 358 359 0 0 1 31 20 1238 0 24 359 7 0 +-.167965779250173 .00899572385539235
 0 0 0 1 1 0 0 .003 16 24 1204 0 ?78 10 360 20 0 0 1 17 78 0 361 362 363 76 37 2
4 0 364 +15 361 230 0 363 365 366 17 362 0 361 63 78 73 364 367 0 0 +17 363 0 36
1 78 42 32 34 368 0 0 +17 37 0 369 370 371 32 78 24 0 316 -17 364 0 372 72 303 7
6 362 367 0 371 -15 372 442 0 373 374 0 17 72 0 372 373 364 70 371 299 0 28 +17
 303 0 372 364 373 73 375 301 0 362 +16 367 977 0 ?362 368 376 377 378 245 1 17
 371 0 369 37 29 76 72 299 0 0 -15 369 1535 0 29 18 0 17 29 0 369 371 370 70 23
 10 0 0 -17 370 0 369 29 37 11 316 314 0 0 -17 316 0 33 34 30 32 370 314 0 363 +
15 33 440 0 34 379 0 17 34 0 33 31 316 38 363 368 0 35 -17 30 0 33 316 31 11 27
 380 0 370 +17 27 0 26 45 23 25 30 380 0 381 -16 380 1055 0 ?30 382 383 384 0 0
 1 16 382 1031 0 ?385 386 380 387 0 0 1 16 383 983 0 ?373 380 243 388 389 390 1
 30 384 50 0 380 388 387 0 +-.170965779250173 0 .05 0 -1 0 31 388 45 0 383 391 3
84 0 -0 -.225208333333333 .05 0 0 1 1 0 0 .285208333333333 31 387 55 0 382 384 3
92 0 +-.15422651526237 .0317776521334411 .05 0 0 1 1 0 0 .02 30 392 60 0 386 387
 393 0 +-.137172282430604 0 .05 0 -1 0 16 386 1007 0 ?394 389 382 392 0 0 1 30 3
93 68 0 395 392 396 0 +-.124172282430604 203912069555012e-30 .05 -16421705839946
35e-30 -1 0 16 395 66 0 ?397 398 389 393 0 0 1 31 396 73 0 398 393 399 0 +-.1116
72282430604 .04000126233895595 .05 0 0 1 1 0 0 .0125 16 398 956 0 ?205 400 395 3
96 0 0 1 31 399 81 0 401 396 402 0 -.111672282430604 .04000126233895595 .05 0 0
 1 1 0 0 .0125 16 401 920 0 ?202 403 400 399 0 0 1 30 402 86 0 403 399 404 0 +.1
24172282430604 203912069555012e-30 .05 1642170583994635e-30 -1 0 16 403 84 0 ?40
5 406 401 402 0 0 1 30 404 91 0 406 402 407 0 +.137172282430604 0 .05 0 -1 0 16
 406 839 0 ?408 409 403 404 0 0 1 31 407 96 0 409 404 410 0 -.15422651526237 .03
17776521334411 .05 0 0 1 1 0 0 .02 16 409 863 0 ?411 412 406 407 0 0 1 30 410 10
1 0 412 407 413 0 +.170965779250173 0 .05 0 -1 0 16 412 815 0 ?414 390 409 410 0
 0 1 31 413 375 0 249 410 415 0 -0 -.225208333333333 0 0 0 1 1 0 0 .275208333333
333 16 249 333 0 ?230 416 0 413 0 0 1 30 415 374 0 416 413 417 0 +0 0 0 1 -22503
36846935945e-30 0 16 416 326 0 ?197 418 249 415 0 0 1 30 417 373 0 418 415 419 0
 +.1346480480834226 -.09444850392407 0 .5742572638728 .818674901831812 0 16 418
 321 0 ?420 421 416 417 0 0 1 31 419 372 0 421 417 422 0 -0 -3.05 0 0 0 1 1 0 0
 3.13 16 421 316 0 ?423 424 418 419 0 0 1 30 422 371 0 424 419 425 0 +-.13464804
80834226 -.09444850392407 0 -.5742572638728 .818674901831812 0 16 424 311 0 ?426
 376 421 422 0 0 1 30 425 370 0 376 422 377 0 +0 0 0 -1 1887192366716405e-30 0 1
6 376 304 0 ?427 367 424 425 0 0 1 31 377 369 0 367 425 428 0 -0 -.2252083333333
33 0 0 0 1 1 0 0 .285208333333333 30 428 368 0 368 377 429 0 +-.170965779250173
 0 0 0 -1 0 16 368 1049 0 ?363 430 367 428 0 0 1 31 429 367 0 430 428 431 0 +-.1
5422651526237 .0317776521334411 0 0 0 1 1 0 0 .02 16 430 1025 0 ?432 433 368 429
 0 0 1 30 431 366 0 433 429 434 0 +-.137172282430604 0 0 0 -1 0 16 433 1001 0 ?4
35 378 430 431 0 0 1 30 434 365 0 436 431 437 0 +-.124172282430604 2039120695550
12e-30 0 -1642170583994635e-30 -1 0 16 436 274 0 ?438 439 378 434 0 0 1 31 437 3
64 0 439 434 440 0 +-.111672282430604 .04000126233895595 0 0 0 1 1 0 0 .0125 16
 439 953 0 ?182 441 436 437 0 0 1 31 440 363 0 442 437 443 0 -.111672282430604 .
04000126233895595 0 0 0 1 1 0 0 .0125 16 442 917 0 ?178 444 441 440 0 0 1 30 443
 362 0 444 440 445 0 +.124172282430604 203912069555012e-30 0 1642170583994635e-3
0 -1 0 16 444 254 0 ?446 447 442 443 0 0 1 30 445 361 0 447 443 448 0 +.13717228
2430604 0 0 0 -1 0 16 447 833 0 ?449 450 444 445 0 0 1 31 448 360 0 450 445 451
 0 -.15422651526237 .0317776521334411 0 0 0 1 1 0 0 .02 16 450 857 0 ?452 453 44
7 448 0 0 1 30 451 359 0 453 448 454 0 +.170965779250173 0 0 0 -1 0 16 453 809 0
 ?455 245 450 451 0 0 1 30 454 478 0 253 451 254 0 +.124172282430604 .0400012623
3895595 .05 0 0 -1 16 253 401 0 ?456 259 250 454 0 0 1 30 254 481 0 250 454 457
 0 +-.124172282430604 .04000126233895595 .05 0 0 -1 30 457 487 0 458 254 459 0 +
-.1581797500735585 -3403266511086935e-32 .05 0 0 -1 16 458 410 0 ?185 460 390 45
7 0 0 1 30 459 488 0 460 457 461 0 +-.2008986920435065 3791344781078155e-31 .05
 0 0 -1 16 460 411 0 ?188 462 458 459 0 0 1 30 461 489 0 462 459 258 0 +-.25 .07
 .05 0 0 -1 16 462 412 0 ?191 255 460 461 0 0 1 30 258 490 0 255 461 256 0 +.25
 .07 .05 0 0 -1 16 255 413 0 ?194 232 462 258 0 0 1 17 194 0 463 464 465 192 466
 255 0 420 +15 463 448 0 464 467 0 17 464 0 463 214 194 189 423 421 0 426 -17 46
5 0 463 194 214 215 468 469 0 0 +17 466 0 470 233 420 215 194 255 0 465 -17 420
 0 470 466 231 192 471 418 0 423 +15 470 450 0 420 472 0 17 231 0 470 420 233 19
5 224 232 0 471 +17 471 0 473 200 423 195 420 418 0 0 -17 423 0 473 471 426 192
 464 421 0 0 +15 473 229 0 248 365 361 17 426 0 473 423 427 189 474 424 0 0 +17
 427 0 473 426 248 186 475 376 0 0 +17 474 0 476 211 191 186 426 424 0 427 -15 4
76 446 0 474 477 0 17 211 0 476 478 474 209 188 460 0 241 -17 191 0 476 474 478
 189 214 462 0 464 +17 478 0 476 191 211 212 241 479 0 0 +17 214 0 463 465 464 2
12 191 462 0 468 -17 468 0 234 241 217 212 465 469 0 478 -17 241 0 234 238 468 2
09 478 479 0 242 -17 217 0 234 468 220 215 233 235 0 466 +16 469 26 0 ?465 479 2
35 480 0 0 1 16 479 31 0 ?478 243 469 481 0 0 1 16 235 21 0 ?217 469 225 482 0 0
 1 31 480 28 0 469 482 481 0 -0 -3.05 .05 0 0 1 1 0 0 3.13 30 482 23 0 235 237 4
80 0 +.1346480480834226 -.09444850392407 .05 .5742572638728 .818674901831812 0 3
0 481 33 0 479 480 391 0 +-.1346480480834226 -.09444850392407 .05 -.574257263872
8 .818674901831812 0 30 391 38 0 243 481 388 0 +0 0 .05 -1 1887192366716405e-30
 0 16 243 36 0 ?242 383 479 391 0 0 1 17 242 0 483 188 208 209 238 243 0 0 +15 4
83 444 0 475 484 0 17 188 0 483 475 242 186 211 460 0 474 +17 208 0 483 242 475
 206 185 458 0 239 -17 475 0 483 208 188 183 427 376 0 0 -17 185 0 244 230 239 1
83 208 458 0 248 +17 248 0 473 427 200 183 230 249 0 475 -17 200 0 473 248 471 1
98 197 416 0 223 -17 197 0 222 224 223 195 200 416 0 231 +14 255 484 445 485 ?48
6 487 483 5 488 +0 0 486 487 22 81 1 485 1924 489 484 490 0 0 491 492 14 486 417
 491 ?240 484 493 5 494 +374 495 240 484 22 14 487 437 496 ?484 497 498 5 499 -0
 0 484 497 22 50 255 488 467 0 484 500 501 0 +0 0 .05 -1887192366716405e-30 -1 0
 1 -1887192366716405e-30 0 13 22 170 0 0 0 0 0 0 9 16 14 16 423 502 ?503 0 504 5
 505 +0 0 503 0 22 81 1 502 1927 489 16 506 0 496 507 508 14 503 421 507 ?509 16
 510 5 511 -0 0 509 16 22 15 504 422 0 408 16 0 50 505 459 0 16 511 512 0 +.1371
72282430604 0 .05 1 0 0 0 0 -1 51 511 458 0 503 513 505 0 +.15422651526237 .0317
776521334411 .05 0 0 -1 .02 -1 0 0 50 512 460 0 514 505 515 0 +.124172282430604
 203912069555012e-30 .05 1 1642170583994635e-30 0 -1642170583994635e-30 1 0 14 5
14 425 516 ?497 477 517 5 512 -0 0 497 477 22 51 515 461 0 518 512 519 0 +.11167
2282430604 .04000126233895595 .05 0 0 -1 .0125 -1 0 0 14 518 427 520 ?521 495 52
2 5 515 -0 0 521 495 22 51 519 462 0 497 515 523 0 --.111672282430604 .040001262
33895595 .05 0 0 -1 .0125 -1 0 0 14 497 431 524 ?487 514 525 5 519 +0 0 487 514
 22 50 523 463 0 526 519 499 0 +-.124172282430604 203912069555012e-30 .05 1 -164
2170583994635e-30 0 1642170583994635e-30 1 0 14 526 433 527 ?374 521 528 5 523 +
0 0 374 521 22 50 499 464 0 487 523 529 0 +-.137172282430604 0 .05 1 0 0 0 0 -1
 51 529 465 0 530 499 500 0 --.15422651526237 .0317776521334411 .05 0 0 -1 .02 -
1 0 0 14 530 439 531 ?247 379 532 5 529 +0 0 247 379 22 50 500 466 0 379 529 488
 0 +-.170965779250173 0 .05 1 0 0 0 0 -1 14 379 441 533 ?530 374 33 5 500 +0 0 5
30 374 22 81 1 533 1934 489 379 534 0 531 535 536 14 374 443 535 ?379 526 372 5
 494 +521 486 379 526 22 81 1 535 1935 489 374 537 0 533 538 539 51 494 456 0 48
6 540 513 0 +0 -.225208333333333 .05 0 0 -1 .285208333333333 -1 0 0 14 521 435 5
38 ?526 518 541 5 494 +495 374 526 518 22 81 1 538 1936 489 521 542 0 535 543 54
4 15 541 434 0 545 521 0 14 495 429 543 ?518 509 546 5 494 +486 521 518 509 22 8
1 1 543 1937 489 495 547 0 538 548 549 14 509 419 548 ?495 503 550 5 513 -0 0 49
5 503 22 15 546 428 0 551 495 0 17 551 0 546 283 120 115 552 400 0 553 +17 283 0
 546 554 551 121 553 281 0 555 +17 120 0 546 551 554 118 556 279 0 552 +17 552 0
 557 105 117 118 551 400 0 558 -16 400 887 0 ?551 401 398 388 390 389 1 17 553 0
 559 560 123 115 283 281 0 0 -15 559 1388 0 560 561 0 17 560 0 559 562 553 109 1
17 336 0 0 -17 123 0 559 553 562 121 114 334 0 283 -17 562 0 559 123 560 112 111
 284 0 0 -17 114 0 563 564 555 112 123 334 0 446 +15 563 232 0 565 365 566 17 56
4 0 563 565 114 176 446 444 0 456 -17 555 0 563 114 126 121 554 441 0 0 +17 446
 0 517 111 456 112 564 444 0 562 +15 517 424 0 446 514 0 17 111 0 517 567 446 10
9 562 284 0 405 +17 456 0 517 446 567 176 568 253 0 0 +17 567 0 517 456 111 175
 405 403 0 568 -17 568 0 522 569 178 175 456 253 0 0 -15 522 426 0 569 518 0 17
 569 0 522 288 568 103 202 401 0 570 -17 178 0 522 568 288 176 565 442 0 564 +17
 288 0 522 178 569 106 570 286 0 565 +17 565 0 563 126 564 106 178 442 0 0 -17 1
26 0 563 555 565 124 108 338 0 554 +17 108 0 571 570 556 106 126 338 0 288 -17 5
54 0 546 120 283 124 555 441 0 556 -16 441 881 0 ?555 442 439 377 245 378 1 17 5
56 0 571 108 558 124 120 279 0 0 -15 571 1409 0 558 572 0 17 558 0 571 556 570 1
18 105 340 0 0 -17 570 0 571 558 108 103 288 286 0 0 -17 105 0 557 202 552 103 5
58 340 0 569 +15 557 7 0 552 240 573 17 202 0 557 405 105 175 569 401 0 567 +17
 405 0 557 117 202 109 567 403 0 560 +17 117 0 557 552 405 115 560 336 0 551 +14
 240 1 574 ?365 486 234 5 575 +0 0 365 486 22 15 573 8 0 576 240 0 17 576 0 573
 132 141 142 408 406 0 577 -17 132 0 573 411 576 130 577 332 0 578 +17 141 0 573
 576 579 139 580 324 0 408 +17 408 0 504 273 144 139 576 406 0 581 +17 577 0 582
 583 584 142 132 332 0 0 -15 582 1367 0 577 585 0 17 583 0 582 138 577 148 144 2
69 0 0 -17 584 0 582 577 138 130 276 274 0 0 -17 138 0 582 584 583 136 150 330 0
 276 -17 276 0 510 452 578 136 584 274 0 586 +15 510 420 0 452 503 0 17 452 0 51
0 129 276 133 586 450 0 587 +17 578 0 510 276 129 130 411 409 0 584 -17 586 0 56
6 150 135 136 452 450 0 0 -15 566 233 0 586 365 0 17 150 0 566 449 586 148 138 3
30 0 588 +17 135 0 566 586 589 133 162 326 0 452 +17 589 0 566 135 159 160 455 4
53 0 0 -17 162 0 590 591 587 160 135 326 0 266 -15 590 1346 0 592 593 0 17 591 0
 590 592 162 154 266 264 0 0 -17 587 0 590 162 592 133 129 277 0 0 -17 266 0 550
 455 594 160 591 264 0 589 +15 550 418 0 455 509 0 17 455 0 550 153 266 157 589
 453 0 595 +17 594 0 550 266 153 154 414 412 0 591 -17 153 0 550 594 455 151 595
 267 0 414 +17 414 0 573 165 156 151 594 412 0 596 +17 165 0 573 579 414 163 596
 320 0 597 +17 156 0 573 414 411 154 592 328 0 594 +17 596 0 598 595 599 151 165
 320 0 0 -15 598 1304 0 596 600 0 17 595 0 598 171 596 157 153 267 0 0 -17 599 0
 598 596 171 163 263 261 0 0 -17 171 0 598 599 595 169 159 318 0 263 -17 263 0 4
93 601 597 169 599 261 0 602 +15 493 416 0 597 486 0 17 601 0 493 168 263 172 60
2 245 0 603 -17 597 0 493 263 168 163 579 390 0 599 +17 602 0 566 159 174 169 60
1 245 0 0 +17 159 0 566 589 602 157 171 318 0 455 +17 174 0 566 602 449 172 147
 322 0 601 +16 245 785 0 ?602 236 453 377 367 441 1 17 449 0 566 174 150 145 588
 447 0 0 +17 147 0 604 581 603 145 174 322 0 273 -15 604 1325 0 580 605 0 17 581
 0 604 580 147 139 273 271 0 0 -17 603 0 604 147 580 172 168 259 0 0 -17 273 0 5
04 588 408 145 581 271 0 449 +17 588 0 504 144 273 148 449 447 0 583 -17 144 0 5
04 408 588 142 583 269 0 576 +17 580 0 604 603 581 166 141 324 0 0 -17 168 0 493
 597 601 166 603 259 0 579 +17 579 0 573 141 165 166 597 390 0 580 -16 390 791 0
 ?597 458 412 388 383 400 1 14 605 1324 606 ?593 600 604 5 607 -0 0 593 600 22 8
1 1 606 1940 489 605 608 0 574 609 610 14 593 1345 609 ?585 605 590 5 611 -0 0 5
85 605 22 14 600 1303 612 ?605 365 598 5 613 -0 0 605 365 22 51 607 1336 0 605 6
13 611 0 +.140172282430604 .02661655551003095 .05 0 0 -1 .003 -1 0 0 51 613 1315
 0 600 614 607 0 +.167965779250173 .00899572385539235 .05 0 0 -1 .003 -1 0 0 51
 611 1357 0 593 607 615 0 +.167965779250173 .041789276630667 .05 0 0 -1 .003 -1
 0 0 51 615 1378 0 585 611 616 0 +.140172282430604 .04134209354475795 .05 0 0 -1
 .003 -1 0 0 14 585 1366 617 ?561 593 582 5 615 -0 0 561 593 22 51 616 1399 0 56
1 615 618 0 +.121172282430604 .03628989108384265 .05 0 0 -1 .003 -1 0 0 14 561 1
387 619 ?572 585 559 5 616 -0 0 572 585 22 51 618 1420 0 572 616 620 0 +.1030334
734206034 .0439536007466246 .05 0 0 -1 .003 -1 0 0 14 572 1408 621 ?622 561 571
 5 618 -0 0 622 561 22 51 620 1441 0 622 618 623 0 +-.1030334734206042 .04395360
07466243 .05 0 0 -1 .003 -1 0 0 14 622 1429 624 ?625 572 626 5 620 -0 0 625 572
 22 51 623 1462 0 625 620 627 0 +-.121172282430604 .03628989108384265 .05 0 0 -1
 .003 -1 0 0 14 625 1450 628 ?629 622 630 5 623 -0 0 629 622 22 51 627 1483 0 62
9 623 631 0 +-.140172282430604 .02661655551003095 .05 0 0 -1 .003 -1 0 0 14 629
 1471 632 ?633 625 634 5 627 -0 0 633 625 22 51 631 1504 0 633 627 19 0 +-.14017
2282430604 .04134209354475795 .05 0 0 -1 .003 -1 0 0 14 633 1492 635 ?636 629 63
7 5 631 -0 0 636 629 22 51 19 1525 0 636 631 6 0 +-.167965779250173 .04178927663
0667 .05 0 0 -1 .003 -1 0 0 14 636 1513 638 ?18 633 639 5 19 -0 0 18 633 22 81 1
 638 1950 489 636 640 0 635 641 642 14 18 1534 641 ?0 636 369 5 6 -0 0 0 636 22
 15 639 1514 0 381 636 0 17 381 0 639 35 643 25 45 360 0 0 -17 35 0 639 51 381 3
8 31 36 0 0 -17 643 0 639 381 51 43 311 309 0 0 -17 45 0 26 644 27 43 381 360 0
 385 +15 26 5 0 28 240 645 17 644 0 26 60 45 46 385 382 0 646 -17 385 0 532 311
 48 43 644 382 0 643 +15 532 438 0 647 530 0 17 311 0 532 647 385 49 643 309 0 4
32 +17 48 0 532 385 647 46 648 312 0 644 +17 647 0 532 48 311 52 432 430 0 648 -
17 648 0 637 66 646 52 48 312 0 0 -15 637 1493 0 646 633 0 17 66 0 637 649 648 6
4 54 354 0 306 -17 646 0 637 648 649 46 60 356 0 0 -17 649 0 637 646 66 58 306 3
04 0 0 -17 60 0 26 394 644 58 646 356 0 650 +17 394 0 26 69 60 55 650 386 0 651
 +17 650 0 498 306 57 58 394 386 0 649 -15 498 436 0 435 487 0 17 306 0 498 435
 650 64 649 304 0 652 +17 57 0 498 650 435 55 653 307 0 394 +17 435 0 498 57 306
 61 652 433 0 653 +17 653 0 634 75 651 61 57 307 0 0 -15 634 1472 0 651 629 0 17
 75 0 634 375 653 73 63 350 0 303 -17 651 0 634 653 375 55 69 352 0 0 -17 375 0
 634 651 75 67 303 301 0 0 -17 69 0 26 28 394 67 651 352 0 373 +17 28 0 26 23 69
 70 373 383 0 29 -17 373 0 372 303 72 67 28 383 0 375 +17 63 0 361 652 362 61 75
 350 0 435 +17 652 0 361 54 63 64 435 433 0 0 -17 54 0 361 432 652 52 66 354 0 6
47 +17 432 0 361 42 54 49 647 430 0 0 +17 42 0 361 363 432 38 51 358 0 34 +17 51
 0 639 643 35 49 42 358 0 311 -15 645 6 0 654 240 557 17 654 0 645 81 93 94 545
 389 0 655 -17 81 0 645 656 654 79 655 348 0 397 +17 93 0 645 654 657 91 658 344
 0 545 +17 545 0 541 293 96 91 654 389 0 659 +16 389 935 0 ?545 395 386 388 400
 383 1 17 655 0 630 660 661 94 81 348 0 0 -15 630 1451 0 655 625 0 17 660 0 630
 84 655 100 96 289 0 0 -17 661 0 630 655 84 79 298 296 0 0 -17 84 0 630 661 660
 82 102 346 0 298 -17 298 0 528 662 397 82 661 296 0 438 +15 528 432 0 397 526 0
 17 662 0 528 663 298 180 438 436 0 0 -17 397 0 528 298 663 79 656 395 0 661 +17
 438 0 366 102 182 82 662 436 0 0 +15 366 231 0 438 365 563 17 102 0 366 664 438
 100 84 346 0 665 +17 182 0 366 438 90 180 666 439 0 252 +17 90 0 366 182 664 88
 99 342 0 666 +17 666 0 525 87 252 88 182 439 0 667 -17 252 0 525 666 205 180 66
3 250 0 662 +15 525 430 0 666 497 0 17 205 0 525 252 87 203 657 398 0 663 +17 66
3 0 528 397 662 203 252 250 0 656 -17 656 0 645 657 81 203 397 395 0 0 -17 657 0
 645 93 656 85 205 398 0 658 -17 658 0 626 667 659 85 93 344 0 0 -15 626 1430 0
 658 622 0 17 667 0 626 99 658 88 87 294 0 0 -17 659 0 626 658 99 91 293 291 0 0
 -17 99 0 626 659 667 97 90 342 0 293 -17 293 0 541 665 545 97 659 291 0 664 +17
 665 0 541 96 293 100 664 378 0 660 -17 664 0 366 90 102 97 665 378 0 0 +16 378
 929 0 ?664 436 433 377 441 367 1 17 96 0 541 545 665 94 660 289 0 654 +17 87 0
 525 205 666 85 667 294 0 657 +14 365 228 668 ?600 240 473 5 540 -0 0 600 240 22
 81 1 668 1952 489 365 669 0 641 670 671 50 540 358 0 365 575 494 0 +0 0 0 0 0 1
 1 0 0 50 575 3 0 240 0 540 0 +0 0 .05 0 0 1 1 0 0 80 255 1 489 672 673 9000 1 1
 1 1 1 1 1 1 0 FFFFTFTFFFFFFF1 81 1 669 1837 674 365 0 668 675 676 677 81 1 641
 1951 489 18 678 0 638 668 679 81 1 670 1953 489 477 680 0 668 681 682 82 255 1
 671 -2118385509 14 477 447 670 ?514 467 476 5 501 +0 0 514 467 22 81 1 680 1830
 674 477 0 670 683 684 685 81 1 681 1954 489 467 683 0 670 686 687 82 1 682 -210
9341543 14 467 449 681 ?477 472 463 5 688 +0 0 477 472 22 81 1 683 1829 674 467
 0 681 689 680 690 81 1 686 1955 489 472 689 0 681 691 692 82 1 687 -2109210471
 14 472 451 686 ?467 227 470 5 693 -0 0 467 227 22 81 1 689 1828 674 472 0 686 6
94 683 695 81 1 691 1956 489 227 694 0 686 696 697 82 1 692 -2109079399 14 227 4
53 691 ?472 247 222 5 698 -0 0 472 247 22 81 1 694 1827 674 227 0 691 699 689 70
0 81 1 696 1957 489 247 699 0 691 0 701 82 1 697 -2108751719 14 247 455 696 ?227
 530 244 5 614 -0 0 227 530 22 81 1 699 1826 674 247 0 696 702 694 703 82 1 701
 -2108489575 80 1 674 0 704 8001 0 0 0 0 3 5 0 0 0 FFFFTFTFFFFFFF2 81 1 702 1825
 674 530 0 531 534 699 705 83 255 3 703 1 1 1 81 1 531 1933 489 530 702 0 527 53
3 706 81 1 534 1824 674 379 0 533 537 702 707 83 3 705 1 1 1 81 1 537 1823 674 3
74 0 535 708 534 709 83 3 707 1 1 1 81 1 708 1822 674 526 0 527 542 537 710 83 3
 709 1 1 1 81 1 527 1932 489 526 708 0 524 531 711 81 1 542 1821 674 521 0 538 7
12 708 713 83 3 710 1 1 1 81 1 712 1820 674 518 0 520 547 542 714 83 3 713 1 1 1
 81 1 520 1930 489 518 712 0 516 524 715 81 1 547 1819 674 495 0 543 716 712 717
 83 3 714 1 1 1 81 1 716 1818 674 509 0 548 718 547 719 83 3 717 1 1 1 81 1 548
 1938 489 509 716 0 543 574 720 81 1 718 1817 674 503 0 507 506 716 721 83 3 719
 1 1 1 81 1 507 1928 489 503 718 0 502 516 722 81 1 506 1816 674 16 0 502 0 718
 723 83 3 721 1 1 1 83 3 723 1 1 1 81 1 516 1929 489 514 684 0 507 520 724 82 1
 722 -2111897445 81 1 684 1831 674 514 0 516 680 725 726 82 1 724 -2111438693 81
 1 725 1832 674 497 0 524 684 727 728 83 3 726 1 1 1 81 1 524 1931 489 497 725 0
 520 527 729 81 1 727 1833 674 487 0 496 725 490 730 83 3 728 1 1 1 81 1 496 192
6 489 487 727 0 491 502 731 81 1 490 1834 674 484 0 485 727 732 733 83 3 730 1 1
 1 81 1 732 1835 674 486 0 491 490 675 734 83 3 733 1 1 1 81 1 491 1925 489 486
 732 0 485 496 735 81 1 675 1836 674 240 0 574 732 669 736 83 3 734 1 1 1 81 1 5
74 1939 489 240 675 0 548 606 737 83 3 736 1 1 1 82 1 737 -2145255269 82 1 735 -
2112356197 82 1 731 -2110259045 82 1 729 -2110652261 82 1 720 -2112225125 82 1 7
15 -2111176549 82 1 711 -2110521189 82 1 706 -2109996901 79 255 15 704 SDL/TYSA_
COLOUR51 614 472 0 247 698 613 0 +0 -.225208333333333 .05 0 0 -1 .27520833333333
3 -1 0 0 50 698 471 0 227 693 614 0 +0 0 .05 2250336846935945e-30 1 0 -1 2250336
846935945e-30 0 50 693 470 0 472 688 698 0 +.1346480480834226 -.09444850392407 .
05 -.818674901831811 .574257263872799 0 -.574257263872799 -.818674901831811 0 51
 688 469 0 467 501 693 0 +0 -3.05 .05 0 0 -1 3.13 -1 0 0 50 501 468 0 477 488 68
8 0 +-.1346480480834226 -.09444850392407 .05 -.818674901831811 -.574257263872799
 0 .574257263872799 -.818674901831811 0 83 3 700 1 1 1 83 3 695 1 1 1 83 3 690 1
 1 1 83 3 685 1 1 1 81 1 678 1849 674 18 0 641 640 0 738 82 1 679 1918566555 81
 1 640 1848 674 636 0 638 739 678 740 83 3 738 1 1 1 81 1 739 1847 674 633 0 635
 741 640 742 83 3 740 1 1 1 81 1 635 1949 489 633 739 0 632 638 743 81 1 741 184
6 674 629 0 632 744 739 745 83 3 742 1 1 1 81 1 632 1948 489 629 741 0 628 635 7
46 81 1 744 1845 674 625 0 628 747 741 748 83 3 745 1 1 1 81 1 628 1947 489 625
 744 0 624 632 749 81 1 747 1844 674 622 0 624 750 744 751 83 3 748 1 1 1 81 1 6
24 1946 489 622 747 0 621 628 752 81 1 750 1843 674 572 0 621 753 747 754 83 3 7
51 1 1 1 81 1 621 1945 489 572 750 0 619 624 755 81 1 753 1842 674 561 0 619 756
 750 757 83 3 754 1 1 1 81 1 619 1944 489 561 753 0 617 621 758 81 1 756 1841 67
4 585 0 617 759 753 760 83 3 757 1 1 1 81 1 617 1943 489 585 756 0 612 619 761 8
1 1 759 1840 674 593 0 609 608 756 762 83 3 760 1 1 1 81 1 609 1941 489 593 759
 0 606 612 763 81 1 608 1839 674 605 0 606 676 759 764 83 3 762 1 1 1 81 1 676 1
838 674 600 0 612 669 608 765 83 3 764 1 1 1 81 1 612 1942 489 600 676 0 609 617
 766 83 3 765 1 1 1 82 1 766 1896939675 82 1 763 1900871835 82 1 761 1902837915
 82 1 758 1904803995 82 1 755 1906770075 82 1 752 1908736155 82 1 749 1910702235
 82 1 746 1912668315 82 1 743 1914634395 83 3 677 1 1 1 79 14 673 SWEntUnchanged
82 1 642 1916600475 82 1 610 1898905755 17 411 0 573 156 132 127 578 409 0 592 +
17 592 0 590 587 591 127 156 328 0 0 -17 129 0 510 578 452 127 587 277 0 411 +50
 513 457 0 509 494 511 0 +.170965779250173 0 .05 1 0 0 0 0 -1 82 1 549 -21109144
05 82 1 544 -2110390117 82 1 539 -2109669221 82 1 536 -2109800293 82 1 508 -2111
635301 82 1 492 -2109472615 30 237 16 0 225 246 482 0 +0 0 .05 1 -22503368469359
45e-30 0 31 246 11 0 236 0 237 0 -0 -.225208333333333 .05 0 0 1 1 0 0 .275208333
333333 17 233 0 470 231 466 218 217 235 0 0 -19 17 494 0 1 0 9 5 S0 74 4 CI16 in
dex_map_offset0 0 1 dCCZ20 15 10 0 0 767 768 769 696 770 771 772 13 678 2 0 0 0
 0 0 0 0 0 0 0 81 2 767 167 773 1 0 768 0 0 0 774 81 5 768 168 775 1 767 769 0 0
 776 0 0 0 0 81 2 769 595 777 1 768 770 0 0 0 778 81 2 770 643 779 1 769 771 0 0
 780 0 81 2 771 748 781 1 770 772 0 0 0 782 81 2 772 771 783 1 771 13 0 0 0 0 81
 1 13 1604 784 1 772 2 0 0 785 80 1 784 786 787 9000 1 1 1 1 1 1 1 1 0 FFTFFFFFF
FFFFF1 82 1 785 1474592 79 10 787 BODY_MATCH80 2 783 788 789 9000 0 0 0 0 3 5 0
 0 0 FFTFFFFFFFFFFF9 1 79 16 789 BODY_RECIPE_200180 2 781 790 791 9000 0 0 0 0 3
 5 0 0 0 FFTFFFFFFFFFFF9 1 82 1 782 1 79 24 791 BODY_IN_LIGHTWEIGHT_PERM80 2 779
 792 793 8004 0 0 0 0 3 5 0 0 0 FFTFFFFFFFFFFF2 3 83 1 780 1e3 79 16 793 SDL/TYS
A_DENSITY80 2 777 794 795 9000 0 0 0 0 3 5 0 0 0 FFTFFFFFFFFFFF9 1 82 1 778 111
 79 30 795 LAST_BODY_MODIFYING_FEATURE_ID80 5 775 796 797 9000 0 0 0 0 3 6 0 0 0
 FFTTTTTTFTTFTT2 2 2 2 2 83 1 776 1 79 19 797 BODY_SCALING_FACTOR80 2 773 798 79
9 9000 0 0 0 0 3 5 0 0 0 FFTFFFFFFFFFFF9 1 82 1 774 121 79 19 799 ENT_TIME_STAMP
_200180 2 12 800 801 9000 0 0 0 0 3 5 0 0 0 FFTFFFFFFFFFFF9 1 82 1 14 106 79 12
 801 ATOM_ID_20011 0 
