**ABCDEFGHIJKLMNOPQRSTUVWXYZabcdefghijklmnopqrstuvwxyz**************************
**PARASOLID !"#$%&'()*+,-./:;<=>?@[\]^_`{|}~0123456789**************************
**PART1;
MC=AMD64;
MC_MODEL=Intel64 Family 6 Model 158 Stepping 10, GenuineIntel;
MC_ID=unknown;
OS=Windows_NT;
OS_RELEASE=unknown;
FRU=Parasolid Version 34.1, build 225,  5-24-2022;
APPL=SOLIDWORKS 2023-2022300;
SITE=;
USER=unknown;
FORMAT=text;
GUISE=transmit;
KEY=集;
FILE=集磁器.;
DATE=Sun Dec 31 13:24:16 2023;
**PART2;
SCH=SCH_3401225_34101;
USFLD_SIZE=0;
**PART3;
**END_OF_HEADER*****************************************************************
T51 : TRANSMIT FILE created by modeller version 340122523 SCH_3401225_34101_1300
6231 0 12 36 CCCI7 lattice222 0 CCCI4 mesh1006 0 I8 polyline1008 0 CCCCCCCDI5 ow
ner1040 0 CCCI16 boundary_lattice222 0 CCCI13 boundary_mesh1006 0 I17 boundary_p
olyline1008 0 CCCA16 index_map_offset0 0 1 dA9 index_map82 0 A17 node_id_index_m
ap82 0 A20 schema_embedding_map82 0 A5 child12 0 A14 lowest_node_id0 0 1 dA16 me
sh_offset_data206 0 Z1 449 2 3 0 0 0 0 0 0 0 1e3 1e-8 0 4 0 1 0 1 1 5 0 6 7 8 0
 0 9 10 11 0 0 0 0 0 0 0 81 255 2 2 429 12 1 13 0 0 0 0 14 70 11 CI9 list_type0
 0 1 uI10 notransmit0 0 1 lCCCDCCDI12 finger_index0 0 1 dI12 finger_block1012 0
 CZ3 0 4 T1 0 0 11 20 1 15 15 13 255 5 99 0 1 0 16 0 0 17 0 51 255 6 94 0 18 19
 0 0 -0 0 .06 0 0 -1 .05 -1 0 0 30 255 7 98 0 10 20 0 0 +-.05 0 .06 0 0 -1 29 25
5 8 137 0 11 21 0 .02473863375370595 .008 .06 19 9 CCCCCCI5 frame230 0 CA5 owner
12 0 Z9 33 0 1 17 0 22 0 V0 16 255 10 82 0 ?23 0 24 7 0 0 1 18 255 11 135 0 25 0
 26 8 ?1 17 255 25 0 27 28 29 11 30 31 0 32 -18 26 112 0 33 11 34 21 ?1 17 33 0
 35 36 37 26 38 39 0 40 -18 34 30 0 41 26 42 43 ?1 29 21 114 0 26 44 8 .04123105
62561766 .008 0 29 44 75 0 45 46 21 .05 0 0 18 45 66 0 47 48 49 44 ?1 29 46 76 0
 49 50 44 .018 0 0 18 49 67 0 51 45 52 46 ?1 29 50 77 0 52 53 46 -.018 0 0 18 52
 68 0 54 49 55 50 ?1 29 53 78 0 55 43 50 -.05 0 0 18 55 69 0 56 52 57 53 ?1 29 4
3 32 0 34 58 53 .05 0 .06 29 58 29 0 42 59 43 .018 0 .06 18 42 27 0 60 34 61 58
 ?1 29 59 26 0 61 62 58 -.018 0 .06 18 61 24 0 63 42 48 59 ?1 29 62 23 0 48 64 5
9 -.05 0 .06 18 48 21 0 65 61 45 62 ?1 29 64 232 0 66 67 62 .02473863375370595 .
008 0 18 66 183 0 30 68 69 64 ?1 29 67 233 0 69 70 64 -.02473863375370595 .008 0
 18 69 181 0 71 66 72 67 ?1 29 70 234 0 72 73 67 -.0412310562561766 .008 0 18 72
 188 0 74 69 0 70 ?1 29 73 235 0 57 75 70 .0412310562561766 .008 .06 18 57 187 0
 28 55 76 73 ?1 29 75 237 0 76 77 73 -.02473863375370595 .008 .06 18 76 185 0 78
 57 68 75 ?1 29 77 238 0 68 0 75 -.0412310562561766 .008 .06 18 68 182 0 79 76 6
6 77 ?1 17 79 0 35 37 36 68 80 81 0 82 +15 255 35 192 0 33 83 0 17 37 0 35 33 79
 72 82 84 0 38 +17 36 0 35 79 33 57 40 85 0 80 -17 80 0 86 87 88 57 79 81 0 0 -1
6 81 169 0 ?79 89 90 91 0 0 1 17 82 0 92 78 74 68 37 84 0 88 -15 92 196 0 74 93
 0 17 78 0 92 71 82 76 88 89 0 94 +17 74 0 92 82 71 72 95 96 0 37 -16 84 160 0 ?
37 97 98 99 0 0 1 17 88 0 86 80 100 68 78 89 0 0 -15 86 133 0 88 16 0 17 100 0 8
6 88 87 76 32 101 0 0 -16 89 172 0 ?78 101 81 102 0 0 1 16 101 175 0 ?32 103 89
 104 0 0 1 30 102 229 0 89 91 104 0 +-.0412310562561766 .008 .06 1 0 0 31 255 91
 230 0 81 0 102 0 +0 0 .06 0 0 1 1 0 0 .042 31 104 228 0 101 102 105 0 +0 0 .06
 0 0 -1 1 0 0 .026 30 105 227 0 103 104 106 0 +.02473863375370595 .008 .06 1 0 0
 16 103 178 0 ?28 85 101 105 0 0 1 31 106 226 0 39 105 107 0 +0 0 0 0 0 1 1 0 0
 .042 16 39 153 0 ?38 96 0 106 0 0 1 30 107 225 0 96 106 108 0 +-.04123105625617
66 .008 0 1 0 0 16 96 157 0 ?95 109 39 107 0 0 1 31 108 224 0 109 107 110 0 +0 0
 0 0 0 -1 1 0 0 .026 16 109 161 0 ?111 90 96 108 0 0 1 30 110 223 0 90 108 112 0
 +.02473863375370595 .008 0 1 0 0 16 90 165 0 ?113 81 109 110 0 0 1 30 112 222 0
 85 110 114 0 +.0412310562561766 .008 .06 0 0 -1 16 85 156 0 ?40 31 103 112 0 0
 1 30 114 221 0 31 112 115 0 +.02473863375370595 .008 .06 0 0 -1 16 31 168 0 ?30
 98 85 114 0 0 1 30 115 220 0 98 114 99 0 +-.02473863375370595 .008 .06 0 0 -1 1
6 98 164 0 ?71 84 31 115 0 0 1 30 99 219 0 84 115 116 0 +-.0412310562561766 .008
 .06 0 0 -1 31 116 7 0 117 99 118 0 +0 0 .06 0 0 1 1 0 0 .05 16 117 5 0 ?119 120
 121 116 0 0 1 30 118 11 0 120 116 122 0 +-.05 0 .06 1 0 0 16 120 9 0 ?63 123 11
7 118 0 0 1 31 122 15 0 123 118 124 0 +0 0 .06 0 0 -1 1 0 0 .018 16 123 13 0 ?60
 125 120 122 0 0 1 30 124 19 0 125 122 126 0 +.018 0 .06 1 0 0 16 125 17 0 ?41 1
27 123 124 0 0 1 31 126 74 0 97 124 128 0 +0 0 0 0 0 1 1 0 0 .05 16 97 62 0 ?129
 130 84 126 0 0 1 30 128 73 0 130 126 131 0 +-.05 0 0 1 0 0 16 130 58 0 ?54 132
 97 128 0 0 1 31 131 72 0 132 128 133 0 +0 0 0 0 0 -1 1 0 0 .018 16 132 54 0 ?51
 121 130 131 0 0 1 30 133 71 0 121 131 134 0 +.018 0 0 1 0 0 16 121 50 0 ?47 117
 132 133 0 0 1 30 134 95 0 127 133 135 0 +.05 0 .06 0 0 -1 16 127 79 0 ?136 137
 125 134 0 0 1 30 135 96 0 137 134 20 0 +.018 0 .06 0 0 -1 16 137 80 0 ?138 24 1
27 135 0 0 1 30 20 97 0 24 135 7 0 +-.018 0 .06 0 0 -1 16 24 81 0 ?139 10 137 20
 0 0 1 17 139 0 140 51 141 52 142 24 0 143 +15 140 85 0 51 144 0 17 51 0 140 145
 139 49 143 132 0 138 +17 141 0 140 139 145 61 60 123 0 0 -17 142 0 146 65 54 61
 139 24 0 141 -17 143 0 147 56 148 52 51 132 0 0 -15 147 49 0 149 150 151 17 56
 0 147 149 143 55 54 130 0 23 -17 148 0 147 143 149 49 47 121 0 0 -17 149 0 147
 148 56 45 129 97 0 0 -17 47 0 152 153 138 45 148 121 0 136 +15 152 83 0 47 154
 0 17 153 0 152 155 47 34 136 127 0 156 -17 138 0 152 47 155 49 145 137 0 148 +1
7 136 0 157 129 156 45 153 127 0 149 +15 157 89 0 129 18 0 17 129 0 157 158 136
 55 149 97 0 0 +17 156 0 157 136 158 34 119 117 0 0 -17 158 0 157 156 129 48 23
 10 0 0 -17 119 0 159 63 41 48 156 117 0 158 +15 159 4 0 119 16 86 17 63 0 159 6
0 119 61 65 120 0 142 +17 41 0 159 119 60 34 155 125 0 153 +17 60 0 159 41 63 42
 141 123 0 145 +17 155 0 152 138 153 42 41 125 0 0 -17 145 0 140 141 51 42 138 1
37 0 155 -17 65 0 146 23 142 48 63 120 0 119 -15 146 87 0 54 160 0 17 23 0 146 5
4 65 55 158 10 0 129 +17 54 0 146 142 23 52 56 130 0 139 +14 255 160 88 161 ?144
 18 146 5 19 -0 0 144 18 22 81 1 161 431 162 160 163 0 0 164 165 14 144 86 164 ?
154 160 140 5 166 -0 0 154 160 22 14 18 90 167 ?160 150 157 5 6 -0 0 160 150 22
 50 255 19 93 0 160 166 6 0 +-.05 0 .06 0 1 0 0 0 1 13 22 34 0 0 0 0 0 0 9 16 14
 16 150 168 ?150 0 159 5 169 +0 0 150 0 22 81 1 168 437 162 16 170 0 167 171 172
 14 150 130 171 ?18 16 147 5 173 -0 0 18 16 22 50 169 3 0 16 174 173 0 +0 0 .06
 0 0 1 1 0 0 51 174 213 0 83 175 169 0 -0 0 .06 0 0 -1 .042 -1 0 0 50 173 70 0 1
50 169 176 0 +0 0 0 0 0 1 1 0 0 50 176 91 0 154 173 166 0 +.018 0 .06 0 1 0 0 0
 1 14 154 84 177 ?83 144 152 5 176 -0 0 83 144 22 51 166 92 0 144 176 19 0 +0 0
 .06 0 0 -1 .018 -1 0 0 81 1 177 441 162 154 178 0 171 179 180 14 83 189 179 ?93
 154 35 5 174 +0 0 93 154 22 81 1 179 443 162 83 181 0 177 182 183 14 93 193 182
 ?184 83 92 5 175 +0 0 184 83 22 81 1 182 445 162 93 185 0 179 186 187 14 184 19
7 186 ?188 93 189 5 190 +0 0 188 93 22 50 175 214 0 93 190 174 0 +-.041231056256
1766 .008 .06 0 1 0 0 0 1 51 190 215 0 184 191 175 0 +0 0 .06 0 0 -1 .026 -1 0 0
 50 191 216 0 188 0 190 0 +.02473863375370595 .008 .06 0 1 0 0 0 1 14 188 201 19
2 ?0 184 27 5 191 +0 0 0 184 22 81 1 192 449 162 188 193 0 186 0 194 15 27 204 0
 29 188 0 17 29 0 27 25 40 66 113 90 0 111 -17 40 0 27 29 28 26 36 85 0 113 +17
 113 0 151 38 111 26 29 90 0 0 +17 111 0 151 113 95 66 195 109 0 0 +15 151 128 0
 38 150 0 17 95 0 151 111 38 69 74 96 0 0 +17 195 0 189 94 30 69 111 109 0 95 -1
5 189 200 0 195 184 0 17 94 0 189 32 195 76 71 98 0 100 -17 30 0 189 195 32 66 2
5 31 0 29 +17 32 0 189 30 94 11 100 101 0 87 +17 87 0 86 100 80 11 28 103 0 0 -1
7 28 0 27 40 25 57 87 103 0 36 +17 71 0 92 74 78 69 94 98 0 195 +17 38 0 151 95
 113 72 33 39 0 0 +80 7 CCCCCDI12 legal_owners0 16 1 lCZ1 162 196 197 9000 1 1 1
 1 1 1 1 1 0 FFFFTFTFFFFFFFFF1 81 3 193 448 198 188 199 192 200 0 201 0 0 81 1 1
86 447 162 184 200 0 182 192 202 82 255 1 194 660013160 81 3 200 446 198 184 203
 186 185 193 204 0 0 82 1 202 660275304 80 3 198 205 206 9000 0 0 0 0 3 5 0 0 0
 FFFFTFFFFFFFFFFF1 1 1 81 1 203 396 207 184 0 200 208 199 209 81 3 185 444 198 9
3 208 182 181 200 210 0 0 82 6 204 0 1858776156 31079337 0 0 0 81 1 208 395 207
 93 0 185 211 203 212 81 3 181 442 198 83 211 179 178 185 213 0 0 82 6 210 0 185
8776156 31079337 0 0 0 81 1 211 394 207 83 0 181 214 208 215 81 3 178 440 198 15
4 214 177 216 181 217 0 0 82 6 213 0 1858776156 31079337 0 0 0 81 1 214 393 207
 154 0 178 218 211 219 81 3 216 438 198 150 220 171 170 178 221 0 0 82 6 217 0 1
858776156 31079337 0 0 0 81 1 220 389 207 150 0 216 222 223 224 81 1 171 439 162
 150 216 0 168 177 225 81 3 170 436 198 16 222 168 226 216 227 0 0 82 6 221 0 18
58776156 31079337 0 0 0 81 1 222 388 207 16 0 170 0 220 228 81 3 226 434 198 18
 223 167 229 170 230 0 0 82 6 227 0 1858776156 31079337 0 0 0 81 1 223 390 207 1
8 0 226 220 231 232 81 1 167 435 162 18 226 0 164 168 233 81 3 229 432 198 144 2
18 164 163 226 234 0 0 82 6 230 0 1858776156 31079337 0 0 0 81 1 218 392 207 144
 0 229 231 214 235 81 1 164 433 162 144 229 0 161 167 236 81 3 163 430 198 160 2
31 161 0 229 237 0 0 82 6 234 0 1858776156 31079337 0 0 0 81 1 231 391 207 160 0
 163 223 218 238 82 6 237 0 1858776156 31079337 0 0 0 80 1 207 0 239 8001 0 0 0
 0 3 5 0 0 0 FFFFTFTFFFFFFFFF2 83 255 3 238 .792156862745098 .819607843137255 .9
33333333333333 79 255 15 239 SDL/TYSA_COLOUR82 1 236 672006248 83 3 235 .7921568
62745098 .819607843137255 .933333333333333 82 1 233 672530536 83 3 232 .79215686
2745098 .819607843137255 .933333333333333 83 3 228 .792156862745098 .81960784313
7255 .933333333333333 82 1 225 676266088 83 3 224 .792156862745098 .819607843137
255 .933333333333333 83 3 219 .792156862745098 .819607843137255 .933333333333333
 83 3 215 .792156862745098 .819607843137255 .933333333333333 83 3 212 .792156862
745098 .819607843137255 .933333333333333 81 1 199 397 207 188 0 193 203 0 240 83
 3 209 .792156862745098 .819607843137255 .933333333333333 83 3 240 .792156862745
098 .819607843137255 .933333333333333 79 18 206 DOWNSTREAM_FACE_ID82 6 201 0 185
8776156 31079337 0 0 0 79 14 197 SWEntUnchanged82 1 187 660537448 82 1 183 66079
9592 82 1 180 671744104 82 1 172 678101096 82 1 165 672268392 19 17 100 0 1 0 9
 5 0 S0 74 4 CI16 index_map_offset0 0 1 dCCZ20 15 11 0 0 241 193 242 243 192 244
 245 246 13 199 2 0 0 0 0 0 0 0 0 0 81 2 241 111 247 1 0 242 0 0 0 248 81 2 242
 276 249 1 241 243 0 0 0 250 81 2 243 277 251 1 242 244 0 0 252 0 81 1 244 288 2
53 1 243 245 0 0 254 81 2 245 301 255 1 244 246 0 0 256 0 81 2 246 347 257 1 245
 13 0 0 0 258 81 2 13 350 259 1 246 2 0 0 0 0 80 2 259 260 261 9000 0 0 0 0 3 5
 0 0 0 FFTFFFFFFFFFFFFF9 1 79 16 261 BODY_RECIPE_200180 2 257 262 263 9000 0 0 0
 0 3 5 0 0 0 FFTFFFFFFFFFFFFF9 1 82 1 258 1 79 24 263 BODY_IN_LIGHTWEIGHT_PERM80
 2 255 264 265 8004 0 0 0 0 3 5 0 0 0 FFTFFFFFFFFFFFFF2 3 83 1 256 1 79 16 265 S
DL/TYSA_DENSITY80 1 253 266 267 9000 1 1 1 1 1 1 1 1 0 FFTFFFFFFFFFFFFF1 82 1 25
4 141220 79 10 267 BODY_MATCH80 2 251 268 269 9000 0 0 0 0 3 5 0 0 0 FFTFTTTFFTF
FFFFF3 3 84 255 10 252 凸台-拉伸179 21 269 SWIMPLICITBODYNAME_ID80 2 249 270 271
 9000 0 0 0 0 3 5 0 0 0 FFTFFFFFFFFFFFFF9 1 82 1 250 37 79 30 271 LAST_BODY_MODI
FYING_FEATURE_ID80 2 247 272 273 9000 0 0 0 0 3 5 0 0 0 FFTFFFFFFFFFFFFF9 1 82 1
 248 103 79 19 273 ENT_TIME_STAMP_200180 2 12 274 275 9000 0 0 0 0 3 5 0 0 0 FFT
FFFFFFFFFFFFF9 1 82 1 14 101 79 12 275 ATOM_ID_20011 0 
